<svg width="476" height="449" viewBox="0 0 476 449" fill="none" xmlns="http://www.w3.org/2000/svg">
<g filter="url(#filter0_bd_220_12)">
<g clip-path="url(#clip0_220_12)">
<g filter="url(#filter1_d_220_12)">
<circle cx="140" cy="56" r="5" fill="white"/>
</g>
<g filter="url(#filter2_d_220_12)">
<circle cx="118" cy="164" r="5" fill="white"/>
</g>
<g filter="url(#filter3_d_220_12)">
<circle cx="238" cy="66" r="5" fill="white"/>
</g>
<path d="M470 6H33V443H470V6Z" fill="url(#paint0_linear_220_12)" fill-opacity="0.9"/>
<path d="M351.947 254.893V348.331C351.947 350.747 351.471 353.14 350.547 355.372C349.622 357.605 348.267 359.633 346.558 361.342C344.85 363.051 342.821 364.406 340.588 365.331C338.356 366.256 335.963 366.732 333.547 366.731H248.417C246 366.732 243.607 366.256 241.375 365.331C239.142 364.407 237.113 363.051 235.404 361.343C233.696 359.634 232.34 357.605 231.415 355.373C230.491 353.14 230.015 350.747 230.015 348.331V254.893C230.014 252.477 230.489 250.083 231.414 247.85C232.338 245.617 233.694 243.588 235.403 241.88C237.112 240.171 239.141 238.815 241.374 237.891C243.607 236.967 246 236.491 248.417 236.492H333.547C335.963 236.491 338.357 236.966 340.59 237.89C342.823 238.814 344.852 240.17 346.56 241.879C348.269 243.588 349.624 245.617 350.547 247.85C351.471 250.083 351.945 252.477 351.943 254.893H351.947Z" fill="white"/>
<path d="M332.052 368.833H249.91C237.784 368.833 227.911 358.964 227.911 346.833V256.387C227.911 244.26 237.779 234.387 249.91 234.387H332.052C344.179 234.387 354.053 244.256 354.053 256.387V346.833C354.053 358.964 344.183 368.833 332.052 368.833ZM249.91 238.593C240.1 238.593 232.118 246.575 232.118 256.386V346.832C232.118 356.642 240.1 364.624 249.91 364.624H332.052C341.863 364.624 349.845 356.642 349.845 346.832V256.387C349.845 246.576 341.863 238.594 332.052 238.594L249.91 238.593Z" fill="#371A45"/>
<path d="M254.791 243.761C254.791 243.761 211.612 255.636 205.211 354.683H306.214L300.226 237.686L254.791 243.761Z" fill="white"/>
<g opacity="0.25">
<path d="M306.213 354.683H205.213C206.19 339.556 218.104 342.641 224.632 327.582C244.275 282.291 304.189 315.127 304.189 315.127L306.213 354.683Z" fill="#371A45"/>
</g>
<path d="M308.428 356.788H202.967L203.112 354.548C206.452 302.865 219.969 275.048 230.722 260.811C242.611 245.072 253.764 241.86 254.232 241.731L254.511 241.674L302.213 235.297L308.428 356.788ZM207.462 352.58H303.999L298.245 240.075L255.242 245.823C254.072 246.205 244.223 249.756 233.797 263.725C223.663 277.308 210.948 303.706 207.462 352.58Z" fill="#371A45"/>
<path d="M385.914 343.029C379.444 356.721 366.563 346.734 366.563 346.734C366.563 346.734 366.083 347.115 362.376 347.912C341.284 352.465 327.382 340.168 327.382 340.168C327.382 340.168 322.722 344.487 318.145 344.361C314.219 344.252 311.52 342.537 310.163 339.92C307.65 335.071 309.574 331.048 313.684 324.428C317.571 318.158 328.919 311.601 345.322 313.644V313.634C346.246 302.217 331.665 289.434 320.495 281.399C313.699 276.511 308.173 273.373 308.173 273.373L325.797 232.051C387.888 284.025 392.606 328.863 385.914 343.029Z" fill="white"/>
<g opacity="0.25">
<path d="M345.322 313.634C346.246 302.217 331.665 289.434 320.495 281.399C318.69 274.063 320.227 267.954 329.182 266.461C336.38 265.259 346.497 285.008 352.189 295.875C359.1 309.072 364.803 320.559 364.881 320.765C364.617 320.57 357.346 315.178 345.322 313.634Z" fill="#371A45"/>
</g>
<g opacity="0.25">
<path d="M388.19 330.168C388.234 335.674 387.328 340.036 385.914 343.029C379.444 356.721 366.563 346.734 366.563 346.734C366.563 346.734 366.082 347.115 362.376 347.912C341.284 352.465 327.382 340.168 327.382 340.168C327.382 340.168 322.722 344.487 318.145 344.361C314.219 344.252 311.52 342.537 310.163 339.92C308.368 336.462 308.834 333.427 310.736 329.565C311.996 330.206 313.519 330.581 315.285 330.63C319.862 330.755 324.522 326.431 324.522 326.431C324.522 326.431 338.424 338.729 359.515 334.18C363.221 333.377 363.699 333.003 363.699 333.003C363.699 333.003 379.006 340.97 388.19 330.168Z" fill="#371A45"/>
</g>
<path d="M376.144 352.353C371.884 352.353 368.038 350.239 366.279 349.101C365.548 349.329 364.461 349.615 362.82 349.969C344.583 353.902 331.575 345.935 327.403 342.868C325.478 344.31 321.831 346.596 318.09 346.473C313.575 346.35 310.096 344.369 308.295 340.902C305.202 334.935 307.712 330.069 311.895 323.326C316.11 316.538 327.581 310.123 343.188 311.324C341.683 297.693 317.029 280.828 307.136 275.215C306.65 274.94 306.294 274.483 306.145 273.945C305.997 273.407 306.068 272.832 306.343 272.347C306.618 271.861 307.075 271.505 307.613 271.356C308.151 271.208 308.726 271.279 309.211 271.554C310.837 272.476 349.008 294.349 347.42 313.824L347.242 316.009L345.064 315.738C330.072 313.874 319.215 319.514 315.471 325.542C311.293 332.28 310.144 335.32 312.031 338.96C313.112 341.042 315.247 342.186 318.206 342.267C321.241 342.352 324.824 339.669 325.954 338.63L327.351 337.343L328.771 338.6C328.9 338.709 342.195 350.12 361.93 345.864C364.258 345.361 365.164 345.054 365.439 344.948L366.552 344.074L367.847 345.078C367.895 345.116 373.165 349.103 377.959 347.94C380.436 347.341 382.47 345.387 384.008 342.134C386.994 335.813 387.658 321.648 379.704 302.531C373.119 286.706 358.187 261.914 324.442 233.667C324.027 233.305 323.77 232.795 323.726 232.246C323.683 231.697 323.857 231.153 324.21 230.731C324.563 230.308 325.068 230.041 325.616 229.987C326.164 229.932 326.712 230.095 327.141 230.44C361.54 259.233 376.824 284.656 383.589 300.914C392.064 321.282 391.328 336.491 387.812 343.931C385.699 348.403 382.709 351.129 378.924 352.036C378.013 352.25 377.08 352.357 376.144 352.353Z" fill="#371A45"/>
<path d="M244.164 268.287C235.729 305.663 231.289 362.298 231.289 362.298H350.674C350.674 362.298 346.234 305.663 337.799 268.287C337.799 268.287 317.716 228.87 290.982 228.87C264.247 228.87 244.164 268.287 244.164 268.287Z" fill="white"/>
<g opacity="0.25">
<path d="M350.672 362.296H231.289C231.289 362.296 232.543 346.288 234.985 325.673H346.976C349.418 346.288 350.672 362.296 350.672 362.296Z" fill="#371A45"/>
</g>
<path d="M246.216 268.746C244.516 276.415 243.092 284.164 241.8 291.939C240.53 299.72 239.421 307.533 238.39 315.359C237.375 323.187 236.454 331.029 235.626 338.885C234.796 346.734 234.029 354.609 233.386 362.458L231.289 360.19H350.674L348.576 362.458L347.389 350.684L346.129 338.907C345.294 331.055 344.338 323.217 343.365 315.386C342.857 311.474 342.369 307.557 341.809 303.654C341.294 299.742 340.705 295.845 340.121 291.945C338.884 284.157 337.593 276.406 336.773 268.515V268.506C336.746 268.247 336.815 267.988 336.967 267.777C337.119 267.566 337.343 267.419 337.597 267.362C337.851 267.306 338.116 267.345 338.343 267.472C338.57 267.6 338.742 267.806 338.827 268.051C341.433 275.612 343.003 283.429 344.359 291.252C345.715 299.074 346.893 306.927 347.956 314.79C349.019 322.652 349.887 330.535 350.731 338.418C351.16 342.36 351.513 346.308 351.854 350.259C352.195 354.209 352.522 358.154 352.773 362.129L352.916 364.397H229.005L229.191 362.129C229.84 354.205 230.611 346.328 231.442 338.44C232.272 330.552 233.197 322.682 234.217 314.816C235.253 306.95 236.369 299.097 237.647 291.258C238.949 283.423 240.385 275.603 242.111 267.82C242.232 267.275 242.564 266.8 243.035 266.501C243.506 266.201 244.076 266.1 244.621 266.221C245.166 266.342 245.64 266.674 245.94 267.145C246.24 267.616 246.341 268.186 246.22 268.731L246.216 268.746Z" fill="#371A45"/>
<path d="M264.246 328.632C256.972 331.691 245.714 331.05 238.039 330.086C233.436 329.507 230.205 325.095 230.882 320.332C231.502 315.985 235.186 312.823 239.413 313.03C246.591 313.378 257.359 313.542 264.179 311.971" fill="white"/>
<g opacity="0.25">
<path d="M264.248 328.631C256.974 331.69 245.712 331.053 238.038 330.085C233.438 329.51 230.205 325.096 230.881 320.33C231.018 319.344 231.324 318.39 231.787 317.509C233.012 319.864 235.283 321.585 238.038 321.934C245.701 322.895 256.938 323.537 264.217 320.489L264.248 328.631Z" fill="#371A45"/>
</g>
<path d="M249.78 332.985C245.561 332.985 241.368 332.625 237.777 332.174C236.424 332.002 235.118 331.561 233.939 330.877C232.759 330.192 231.728 329.278 230.907 328.188C230.036 327.035 229.401 325.721 229.039 324.322C228.678 322.923 228.596 321.466 228.8 320.035C229.576 314.584 234.161 310.675 239.515 310.928C250.067 311.441 258.658 311.084 263.706 309.92C264.745 309.683 267.325 309.643 268.87 314.426C270.602 319.796 270.243 328.392 265.062 330.571C260.764 332.378 255.251 332.985 249.78 332.985ZM239.021 315.124C235.995 315.124 233.419 317.442 232.966 320.628C232.835 321.506 232.881 322.402 233.102 323.262C233.323 324.122 233.714 324.929 234.252 325.635C234.734 326.28 235.342 326.821 236.037 327.227C236.733 327.633 237.503 327.895 238.301 327.998C249.234 329.372 258.16 328.908 263.429 326.692C264.425 326.274 265.163 324.821 265.453 322.707C265.983 318.857 264.896 315.157 264.157 314.131C257.213 315.614 246.857 315.498 239.308 315.131C239.213 315.126 239.118 315.124 239.021 315.124Z" fill="#371A45"/>
<path d="M319.891 328.632C327.164 331.691 338.423 331.05 346.097 330.086C350.701 329.507 353.933 325.095 353.254 320.332C352.636 315.985 348.951 312.823 344.724 313.03C337.545 313.378 326.778 313.542 319.958 311.971" fill="white"/>
<g opacity="0.35">
<path d="M346.097 330.085C338.418 331.053 327.161 331.688 319.887 328.631L319.919 320.507C327.193 323.554 338.429 322.91 346.097 321.95C348.856 321.601 351.129 319.874 352.354 317.514C352.811 318.395 353.116 319.347 353.254 320.33C353.931 325.096 350.699 329.51 346.097 330.085Z" fill="#371A45"/>
</g>
<path d="M334.354 332.985C328.884 332.985 323.371 332.379 319.073 330.572C313.893 328.394 313.533 319.797 315.266 314.427C316.811 309.644 319.391 309.683 320.429 309.922C325.476 311.085 334.067 311.442 344.62 310.929C349.974 310.672 354.562 314.585 355.336 320.036C355.539 321.467 355.457 322.924 355.095 324.324C354.734 325.723 354.099 327.037 353.227 328.19C352.407 329.28 351.377 330.194 350.197 330.878C349.017 331.563 347.713 332.003 346.36 332.175C342.769 332.625 338.572 332.985 334.354 332.985ZM320.703 326.692C325.975 328.909 334.899 329.372 345.831 327.998C346.629 327.895 347.399 327.633 348.095 327.227C348.79 326.821 349.397 326.28 349.88 325.635C350.418 324.929 350.809 324.122 351.03 323.262C351.251 322.402 351.298 321.506 351.167 320.628C350.699 317.341 347.964 314.977 344.822 315.131C337.273 315.499 326.919 315.615 319.974 314.131C319.234 315.157 318.147 318.857 318.677 322.707C318.967 324.821 319.706 326.274 320.701 326.692H320.703Z" fill="#371A45"/>
<path d="M322.698 306.465V333.166C322.698 338.121 318.795 342.174 314.029 342.174H266.686C261.915 342.174 258.017 338.121 258.017 333.166V306.465C258.017 301.515 261.915 297.462 266.686 297.462H314.032C317.84 297.462 321.099 300.05 322.255 303.617C322.549 304.537 322.699 305.498 322.698 306.465Z" fill="white"/>
<g opacity="0.25">
<path d="M322.698 306.465V333.166C322.698 338.121 318.795 342.174 314.029 342.174H266.686C261.915 342.174 258.017 338.121 258.017 333.166V324.179C266.185 328.876 282.369 335.925 298.611 330.107C306.544 327.266 315.642 317.514 315.642 317.514C315.642 317.514 315.992 327.742 317.453 327.582C321.516 327.133 321.487 306.439 322.26 303.617C322.553 304.538 322.701 305.498 322.698 306.465Z" fill="#371A45"/>
</g>
<path d="M313.648 344.275H267.06C264.103 344.272 261.268 343.096 259.177 341.005C257.086 338.914 255.91 336.079 255.907 333.122V306.511C255.91 303.554 257.086 300.719 259.177 298.628C261.268 296.537 264.103 295.361 267.06 295.357H313.648C316.606 295.359 319.442 296.535 321.535 298.626C323.627 300.717 324.804 303.553 324.807 306.511V333.122C324.804 336.08 323.627 338.916 321.535 341.007C319.442 343.098 316.606 344.273 313.648 344.275ZM267.06 299.566C265.219 299.567 263.453 300.3 262.151 301.602C260.849 302.904 260.116 304.669 260.114 306.511V333.122C260.116 334.963 260.849 336.729 262.151 338.031C263.453 339.333 265.219 340.066 267.06 340.068H313.648C315.49 340.066 317.255 339.333 318.557 338.031C319.86 336.729 320.592 334.963 320.594 333.122V306.511C320.592 304.669 319.86 302.904 318.557 301.602C317.255 300.3 315.489 299.567 313.648 299.566H267.06Z" fill="#371A45"/>
<path d="M307.128 327.581C311.257 327.581 314.605 324.104 314.605 319.816C314.605 315.528 311.257 312.052 307.128 312.052C302.998 312.052 299.651 315.528 299.651 319.816C299.651 324.104 302.998 327.581 307.128 327.581Z" fill="#22A7F0"/>
<path d="M314.606 319.818C314.607 320.336 314.558 320.852 314.46 321.36C313.768 317.804 310.745 315.133 307.127 315.133C303.508 315.133 300.484 317.808 299.798 321.36C299.699 320.852 299.65 320.336 299.652 319.818C299.652 315.53 302.997 312.051 307.127 312.051C311.256 312.051 314.606 315.53 314.606 319.818Z" fill="white"/>
<g opacity="0.35">
<path d="M314.604 319.815C314.604 324.106 311.254 327.58 307.128 327.58C303.002 327.58 299.651 324.106 299.651 319.815C299.651 319.114 299.742 318.417 299.923 317.739C300.797 321.017 303.699 323.42 307.128 323.42C310.557 323.42 313.454 321.017 314.338 317.739C314.516 318.417 314.605 319.115 314.604 319.815Z" fill="#371A45"/>
</g>
<path d="M307.128 329.161C302.135 329.161 298.072 324.971 298.072 319.818C298.072 314.666 302.135 310.476 307.128 310.476C312.121 310.476 316.183 314.667 316.183 319.818C316.183 324.97 312.119 329.161 307.128 329.161ZM307.128 313.632C303.874 313.632 301.228 316.408 301.228 319.818C301.228 323.229 303.874 326.005 307.128 326.005C310.381 326.005 313.027 323.23 313.027 319.818C313.027 316.407 310.386 313.629 307.128 313.629V313.632Z" fill="#371A45"/>
<path d="M285.939 344.275C285.381 344.275 284.846 344.054 284.452 343.659C284.057 343.265 283.836 342.73 283.836 342.172V328.506C283.836 325.783 282.593 323.187 280.51 321.559L279.308 320.618C276.215 318.199 274.367 314.364 274.367 310.356V297.465C274.361 297.185 274.41 296.906 274.513 296.645C274.616 296.384 274.77 296.147 274.966 295.946C275.162 295.746 275.396 295.586 275.654 295.477C275.913 295.369 276.19 295.313 276.471 295.313C276.751 295.313 277.029 295.369 277.287 295.477C277.545 295.586 277.779 295.746 277.975 295.946C278.171 296.147 278.325 296.384 278.428 296.645C278.531 296.906 278.581 297.185 278.574 297.465V310.356C278.574 313.079 279.818 315.676 281.9 317.303L283.102 318.243C286.196 320.662 288.043 324.499 288.043 328.506V342.172C288.043 342.448 287.989 342.722 287.883 342.977C287.777 343.232 287.622 343.464 287.427 343.66C287.231 343.855 286.999 344.01 286.744 344.115C286.489 344.221 286.215 344.275 285.939 344.275Z" fill="#371A45"/>
<g opacity="0.25">
<path d="M349.797 246.249C334.518 261.732 313.543 271.15 290.56 270.809C267.878 270.473 247.497 260.697 232.812 245.135C234.465 242.488 236.765 240.305 239.495 238.793C242.226 237.281 245.296 236.489 248.417 236.491H333.547C336.886 236.489 340.163 237.396 343.026 239.115C345.889 240.835 348.229 243.301 349.797 246.249Z" fill="#371A45"/>
</g>
<path d="M370.375 206.168C369.429 206.068 368.753 205.192 368.864 204.212L374.682 153.069C374.791 152.086 375.651 151.374 376.596 151.474C386.52 152.522 393.616 161.71 392.446 171.998L390.466 189.436C389.292 199.724 380.298 207.214 370.375 206.168Z" fill="white"/>
<path d="M372.221 206.642C371.592 206.642 370.963 206.609 370.338 206.543C370.067 206.514 369.805 206.432 369.567 206.3C369.329 206.169 369.119 205.991 368.95 205.778C368.77 205.553 368.637 205.295 368.558 205.018C368.479 204.741 368.457 204.451 368.491 204.165L374.308 153.022C374.443 151.837 375.493 150.971 376.638 151.094C381.414 151.597 385.721 153.966 388.765 157.758C391.973 161.757 393.413 166.826 392.821 172.033L390.837 189.472C389.72 199.3 381.567 206.642 372.221 206.642ZM376.422 151.841C376.079 151.85 375.751 151.984 375.5 152.217C375.249 152.451 375.092 152.769 375.06 153.111L369.242 204.254C369.219 204.44 369.234 204.63 369.285 204.811C369.337 204.992 369.423 205.161 369.54 205.308C369.647 205.443 369.779 205.555 369.929 205.637C370.079 205.72 370.244 205.773 370.414 205.791C380.117 206.813 388.941 199.454 390.086 189.394L392.07 171.951C392.639 166.945 391.256 162.075 388.175 158.235C385.256 154.597 381.13 152.328 376.556 151.845C376.51 151.849 376.465 151.841 376.42 151.841H376.422Z" fill="#371A45"/>
<g opacity="0.25">
<path d="M391.391 181.259L390.463 189.438C389.292 199.722 380.302 207.214 370.374 206.171C369.428 206.072 368.753 205.188 368.863 204.211L370.405 190.614C370.499 190.936 370.685 191.223 370.941 191.44C371.197 191.656 371.51 191.793 371.843 191.832L373.013 191.952C380.852 192.781 388.12 188.275 391.391 181.259Z" fill="#371A45"/>
</g>
<path d="M372.221 208.368C371.532 208.368 370.842 208.332 370.156 208.259C369.659 208.207 369.178 208.057 368.74 207.817C368.301 207.578 367.915 207.253 367.604 206.862C367.281 206.459 367.041 205.997 366.899 205.501C366.757 205.005 366.715 204.485 366.776 203.973L372.591 152.832C372.833 150.709 374.725 149.16 376.817 149.383C382.054 149.936 386.774 152.529 390.111 156.687C393.607 161.046 395.18 166.569 394.536 172.236L392.552 189.677C391.34 200.372 382.431 208.368 372.221 208.368ZM370.995 204.107C379.592 204.795 387.351 198.184 388.373 189.194L390.357 171.758C390.874 167.214 389.621 162.8 386.831 159.318C384.28 156.139 380.708 154.121 376.74 153.608L370.995 204.107Z" fill="#371A45"/>
<path d="M213.76 134.286C214.706 134.385 215.382 135.261 215.271 136.241L209.453 187.386C209.344 188.369 208.484 189.08 207.539 188.98C197.615 187.933 190.519 178.744 191.689 168.456L193.673 151.016C194.843 140.728 203.836 133.238 213.76 134.286Z" fill="white"/>
<path d="M207.715 189.367C207.642 189.367 207.569 189.363 207.496 189.355C202.721 188.852 198.413 186.483 195.37 182.691C192.162 178.694 190.722 173.623 191.314 168.418L193.297 150.975C194.489 140.498 203.691 132.839 213.799 133.911C214.069 133.94 214.332 134.022 214.57 134.153C214.808 134.285 215.018 134.462 215.186 134.676C215.366 134.901 215.5 135.159 215.579 135.436C215.658 135.713 215.681 136.002 215.646 136.288L209.829 187.433C209.773 187.957 209.528 188.444 209.138 188.8C208.749 189.157 208.243 189.358 207.715 189.367ZM211.915 134.567C202.946 134.567 195.123 141.621 194.049 151.063L192.068 168.498C191.499 173.504 192.882 178.375 195.963 182.214C198.881 185.852 203.007 188.121 207.58 188.604C208.329 188.681 208.992 188.115 209.08 187.342L214.898 136.199C214.921 136.012 214.907 135.822 214.855 135.641C214.804 135.46 214.717 135.291 214.6 135.144C214.493 135.01 214.361 134.898 214.211 134.815C214.061 134.732 213.896 134.68 213.726 134.662C213.124 134.598 212.52 134.566 211.915 134.567Z" fill="#371A45"/>
<g opacity="0.25">
<path d="M211.071 173.197L209.455 187.386C209.346 188.369 208.483 189.079 207.537 188.981C202.329 188.428 197.894 185.635 195.03 181.614C192.442 177.982 191.136 173.344 191.691 168.459L192.526 161.111C194.61 167.855 200.375 173.009 207.65 173.784L209.451 173.974C209.766 174.003 210.083 173.947 210.368 173.81C210.654 173.673 210.896 173.461 211.071 173.197Z" fill="#371A45"/>
</g>
<path d="M207.715 191.094C207.582 191.093 207.449 191.086 207.317 191.072C202.081 190.519 197.359 187.925 194.024 183.767C190.528 179.408 188.954 173.886 189.599 168.219L191.582 150.778C192.881 139.364 202.922 131.021 213.978 132.194C214.475 132.245 214.957 132.395 215.395 132.635C215.833 132.875 216.219 133.2 216.53 133.591C216.853 133.993 217.093 134.456 217.235 134.952C217.377 135.448 217.419 135.967 217.358 136.479L211.542 187.623C211.318 189.61 209.642 191.094 207.715 191.094ZM211.915 136.292C203.81 136.292 196.737 142.694 195.763 151.259L193.78 168.698C193.263 173.243 194.515 177.657 197.305 181.139C199.856 184.318 203.423 186.337 207.397 186.849L213.141 136.345C212.732 136.308 212.321 136.292 211.915 136.292Z" fill="#371A45"/>
<path d="M374.582 188.421C385.022 141.095 356.544 94.5799 310.973 84.5273C265.403 74.4746 219.998 104.691 209.558 152.017C199.118 199.343 227.597 245.858 273.167 255.91C318.737 265.963 364.142 235.747 374.582 188.421Z" fill="white"/>
<path d="M290.772 258.217C285.872 258.217 280.981 257.778 276.159 256.906C254.438 252.978 235.445 240.65 222.675 222.19C209.203 202.714 204.187 178.898 208.553 155.128C217.331 107.336 261.939 75.2306 307.995 83.5544C329.716 87.4808 348.711 99.8097 361.48 118.269C374.952 137.746 379.967 161.562 375.601 185.331C367.758 228.033 331.302 258.217 290.772 258.217ZM293.381 82.9939C253.209 82.9939 217.073 112.92 209.297 155.263C204.968 178.832 209.94 202.448 223.297 221.759C235.952 240.052 254.772 252.268 276.293 256.16C321.938 264.411 366.155 232.576 374.859 185.192C379.187 161.622 374.215 138.007 360.858 118.697C348.204 100.404 329.383 88.1866 307.861 84.2951C303.083 83.4304 298.237 82.9949 293.381 82.9939Z" fill="#371A45"/>
<g opacity="0.35">
<path d="M376.627 173.169C376.435 177.227 375.968 181.267 375.231 185.262C366.471 232.923 322.148 264.832 276.225 256.534C230.303 248.237 200.172 202.858 208.922 155.194C209.172 153.824 209.455 152.463 209.766 151.118C207.657 194.144 236.448 232.768 278.466 240.365C323.067 248.426 366.154 218.56 376.627 173.169Z" fill="#371A45"/>
</g>
<path d="M290.772 259.944C285.769 259.943 280.775 259.493 275.852 258.601C253.674 254.593 234.288 242.009 221.256 223.17C207.521 203.314 202.407 179.033 206.856 154.815C215.805 106.089 261.312 73.3592 308.302 81.8534C330.48 85.8628 349.868 98.4452 362.899 117.284C376.634 137.141 381.748 161.421 377.299 185.64C369.303 229.176 332.119 259.944 290.772 259.944ZM293.381 84.7201C254.023 84.7201 218.619 114.06 210.994 155.575C206.749 178.69 211.623 201.846 224.716 220.777C237.107 238.694 255.534 250.652 276.601 254.461C281.277 255.308 286.02 255.734 290.772 255.736C330.132 255.736 365.535 226.394 373.161 184.88C377.406 161.764 372.533 138.609 359.438 119.679C347.048 101.762 328.621 89.8024 307.554 85.9939C302.877 85.1474 298.134 84.7211 293.381 84.7201Z" fill="#371A45"/>
<path d="M374.557 187.428C371.701 204.362 363.753 219.206 352.502 230.721C344.065 239.351 313.271 251.82 278.744 246.467C246.733 241.503 220.63 219.031 215.488 208.163C208.387 193.221 206.063 176.455 208.833 160.145C216.39 115.341 256.621 102.874 302.386 110.409C348.152 117.944 382.114 142.625 374.557 187.428Z" fill="#371A45"/>
<path d="M295.685 249.409C289.929 249.412 284.181 248.971 278.492 248.091C260.204 245.251 245.354 237.172 236.116 230.889C225.645 223.767 216.964 215.124 214.002 208.87C206.753 193.626 204.382 176.518 207.212 159.878C210.879 138.137 222.107 122.761 240.586 114.17C256.784 106.638 278.245 104.779 302.649 108.798C332.625 113.733 354.87 125.294 366.974 142.246C376.027 154.919 379.123 170.214 376.173 187.707C373.353 204.422 365.576 219.694 353.667 231.871C348.722 236.933 338.054 242.126 325.828 245.426C315.997 248.064 305.864 249.403 295.685 249.409ZM278.594 109.998C264.583 109.998 252.166 112.395 241.97 117.136C224.529 125.245 213.923 139.807 210.446 160.417C207.729 176.394 210.005 192.821 216.964 207.457C221.917 217.916 247.587 239.972 278.995 244.843C313.795 250.239 343.735 237.341 351.329 229.57C362.76 217.874 370.23 203.205 372.941 187.152C375.74 170.552 372.832 156.081 364.31 144.141C352.722 127.919 331.218 116.812 302.121 112.022C293.889 110.671 286.016 109.998 278.594 109.998Z" fill="#371A45"/>
<g opacity="0.5">
<path d="M358.922 180.446C361.706 172.338 359.372 164.19 353.709 162.245C348.046 160.301 341.199 165.297 338.415 173.405C335.631 181.512 337.965 189.661 343.628 191.605C349.291 193.549 356.138 188.553 358.922 180.446Z" fill="white"/>
</g>
<g opacity="0.5">
<path d="M335.796 207.541C337.438 203.971 336.367 199.974 333.406 198.612C330.444 197.249 326.712 199.038 325.071 202.607C323.429 206.177 324.499 210.174 327.461 211.536C330.423 212.899 334.154 211.11 335.796 207.541Z" fill="white"/>
</g>
<g opacity="0.35">
<path d="M365.49 142.978C373.929 154.675 377.589 169.43 374.558 187.426C371.702 204.36 363.752 219.206 352.506 230.721C344.069 239.351 313.271 251.819 278.744 246.469C266.552 244.582 255.223 240.153 245.576 234.787C288.169 240.425 325.708 225.08 336.169 214.374C350.451 199.76 360.538 180.915 364.159 159.43C365.094 153.997 365.54 148.49 365.49 142.978Z" fill="#111A28"/>
</g>
<path d="M374.05 149.066C373.74 149.067 373.434 148.999 373.153 148.867C372.873 148.734 372.625 148.541 372.429 148.301L372.391 148.253L372.243 148.063L372.14 147.845C361.534 125.082 336.369 108.885 303.094 103.406C269.63 97.8989 240.462 105.545 223.073 124.382L222.942 124.511C222.537 124.878 222.005 125.073 221.459 125.055C220.913 125.037 220.395 124.807 220.016 124.414C219.636 124.021 219.424 123.496 219.425 122.949C219.425 122.403 219.639 121.878 220.02 121.486C238.39 101.618 268.913 93.5092 303.778 99.2525C338.424 104.956 364.721 122.004 375.935 146.024C376.094 146.344 376.169 146.701 376.152 147.059C376.135 147.417 376.027 147.764 375.839 148.069C375.65 148.374 375.387 148.625 375.074 148.799C374.761 148.974 374.408 149.066 374.05 149.066Z" fill="#371A45"/>
<g opacity="0.5">
<path d="M222.943 189.868C222.943 189.868 217.024 143.467 242.951 129.633C268.878 115.798 301.895 121.307 300.751 123.378C300.751 123.378 262.638 126.546 243.272 154.187C228.339 175.489 222.943 189.868 222.943 189.868Z" fill="white"/>
</g>
<path d="M409.445 350.836C409.445 366.587 345.515 384.054 254.166 384.054C162.816 384.054 98.8777 366.587 98.8777 350.836H409.445Z" fill="#371A45"/>
<path d="M98.8778 350.097C105.348 348.956 111.817 348.654 118.288 348.533C124.758 348.374 131.228 348.458 137.699 348.545L147.403 348.615H157.108H370.625H380.33C383.565 348.615 386.8 348.515 390.034 348.468C393.269 348.421 396.505 348.494 399.74 348.68C401.357 348.789 402.975 348.932 404.593 349.165C406.211 349.398 407.828 349.661 409.445 350.096C409.608 350.139 409.752 350.235 409.855 350.369C409.957 350.503 410.013 350.666 410.013 350.835C410.013 351.004 409.957 351.168 409.855 351.301C409.752 351.435 409.608 351.531 409.445 351.574C407.828 352.011 406.21 352.277 404.593 352.504C402.976 352.731 401.357 352.883 399.74 352.989C396.506 353.175 393.27 353.245 390.034 353.201C386.8 353.155 383.565 353.052 380.33 353.054H370.625H157.108H147.403L137.699 353.123C131.228 353.21 124.758 353.294 118.288 353.135C111.817 353.014 105.348 352.711 98.8778 351.572C98.7041 351.541 98.5467 351.45 98.4334 351.315C98.3201 351.18 98.2579 351.009 98.2579 350.833C98.2579 350.656 98.3201 350.486 98.4334 350.351C98.5467 350.215 98.7041 350.124 98.8778 350.094V350.097Z" fill="#371A45"/>
<path d="M345.323 313.648C328.918 311.608 317.573 318.164 313.683 324.431C309.574 331.054 307.648 335.076 310.163 339.927C311.519 342.54 314.222 344.26 318.147 344.368C322.722 344.494 327.381 340.173 327.381 340.173C327.381 340.173 341.284 352.47 362.377 347.918C366.08 347.119 366.562 346.742 366.562 346.742L368.628 337.16C368.628 337.16 371.502 324.747 361.554 318.813C353.223 313.84 345.323 313.648 345.323 313.648Z" fill="white"/>
<path d="M352.967 351.038C339.935 351.038 330.78 345.348 327.403 342.864C325.478 344.306 321.831 346.591 318.09 346.469C313.575 346.345 310.096 344.365 308.295 340.897C305.202 334.931 307.712 330.065 311.895 323.322C316.324 316.191 328.754 309.469 345.583 311.561C346.13 311.638 346.625 311.927 346.961 312.365C347.296 312.804 347.446 313.357 347.378 313.905C347.31 314.453 347.029 314.952 346.596 315.295C346.163 315.638 345.612 315.797 345.063 315.737C330.07 313.873 319.214 319.513 315.47 325.541C311.292 332.278 310.143 335.319 312.03 338.959C313.111 341.041 315.246 342.185 318.205 342.266C321.24 342.351 324.823 339.668 325.953 338.629L327.35 337.342L328.77 338.598C328.899 338.708 342.194 350.119 361.929 345.863C364.51 345.305 365.343 344.989 365.507 344.92C365.968 344.654 366.513 344.573 367.032 344.693C367.551 344.813 368.004 345.125 368.302 345.567C368.6 346.008 368.719 346.546 368.636 347.072C368.552 347.598 368.273 348.072 367.854 348.4C367.575 348.619 366.993 349.074 362.816 349.976C359.58 350.679 356.278 351.034 352.967 351.038Z" fill="#371A45"/>
<path d="M345.436 311.542C345.801 311.553 346.065 311.561 346.364 311.585C346.663 311.609 346.942 311.633 347.225 311.666C347.795 311.731 348.351 311.817 348.909 311.914C350.018 312.118 351.115 312.371 352.187 312.679C353.259 312.987 354.324 313.345 355.364 313.75C355.882 313.959 356.402 314.157 356.914 314.378L358.428 315.082C360.43 316.042 362.35 317.161 364.173 318.428C365.096 319.034 365.956 319.733 366.817 320.417C367.677 321.101 368.474 321.867 369.276 322.61C369.464 322.785 369.582 323.023 369.607 323.278C369.633 323.534 369.564 323.791 369.413 323.999C369.263 324.208 369.041 324.354 368.79 324.411C368.539 324.467 368.277 324.43 368.051 324.306L367.975 324.264C367.049 323.754 366.185 323.171 365.264 322.682C364.343 322.192 363.449 321.671 362.508 321.235C360.67 320.289 358.76 319.513 356.851 318.779C354.938 318.076 352.99 317.47 351.016 316.964C350.032 316.697 349.049 316.482 348.066 316.266C347.574 316.175 347.083 316.056 346.595 315.979C346.351 315.932 346.108 315.887 345.87 315.85L345.205 315.741L345.026 315.712C344.5 315.624 344.028 315.34 343.704 314.918C343.38 314.495 343.229 313.966 343.28 313.436C343.332 312.906 343.583 312.415 343.982 312.063C344.382 311.711 344.9 311.524 345.432 311.539L345.436 311.542Z" fill="#371A45"/>
<path d="M325.277 339.065C325.343 338.214 325.446 337.511 325.575 336.753C325.704 335.995 325.849 335.274 326.024 334.543C326.37 333.081 326.817 331.644 327.362 330.244C327.927 328.841 328.622 327.494 329.438 326.219C330.29 324.955 331.314 323.815 332.48 322.833C332.641 322.699 332.846 322.63 333.055 322.641C333.264 322.652 333.461 322.741 333.607 322.89C333.753 323.04 333.837 323.239 333.842 323.448C333.848 323.657 333.774 323.861 333.636 324.018L333.605 324.054C332.733 325.051 332.003 326.162 331.435 327.358C330.892 328.576 330.463 329.842 330.153 331.14C329.859 332.451 329.656 333.782 329.545 335.121C329.487 335.791 329.452 336.464 329.442 337.131C329.432 337.799 329.442 338.5 329.482 339.068C329.517 339.622 329.334 340.168 328.97 340.587C328.606 341.006 328.092 341.266 327.539 341.309C326.986 341.352 326.438 341.175 326.014 340.817C325.59 340.459 325.324 339.949 325.273 339.396C325.267 339.286 325.268 339.175 325.277 339.065Z" fill="#371A45"/>
<path d="M364.465 346.541C364.699 345.339 364.969 344.234 365.274 343.095C365.579 341.957 365.919 340.845 366.312 339.734C366.704 338.603 367.178 337.503 367.732 336.442C368.025 335.888 368.366 335.361 368.751 334.867C369.155 334.365 369.635 333.863 370.313 333.521C370.478 333.446 370.665 333.434 370.839 333.484C371.013 333.535 371.164 333.646 371.264 333.798C371.364 333.95 371.406 334.132 371.384 334.312C371.362 334.492 371.277 334.658 371.143 334.781L371.074 334.838C370.478 335.336 370.049 336.324 369.75 337.303C369.456 338.329 369.237 339.375 369.095 340.433C368.942 341.506 368.836 342.594 368.767 343.685C368.698 344.777 368.658 345.894 368.658 346.932C368.666 347.214 368.617 347.494 368.516 347.756C368.414 348.019 368.261 348.259 368.065 348.461C367.87 348.664 367.636 348.826 367.377 348.937C367.118 349.048 366.84 349.106 366.558 349.108C366.276 349.11 365.997 349.055 365.737 348.948C365.477 348.841 365.24 348.682 365.042 348.482C364.844 348.283 364.687 348.045 364.582 347.784C364.476 347.523 364.424 347.243 364.428 346.962C364.427 346.821 364.439 346.68 364.465 346.541Z" fill="#371A45"/>
<path d="M368.392 342.136H269.738V350.836H368.392V342.136Z" fill="#D8D8D8"/>
<path d="M368.398 352.94H269.745C269.187 352.94 268.652 352.718 268.257 352.323C267.862 351.929 267.641 351.394 267.641 350.836V342.136C267.641 341.578 267.862 341.043 268.257 340.648C268.652 340.254 269.187 340.032 269.745 340.032H368.398C368.956 340.032 369.491 340.254 369.885 340.648C370.28 341.043 370.502 341.578 370.502 342.136V350.836C370.502 351.394 370.28 351.929 369.885 352.323C369.491 352.718 368.956 352.94 368.398 352.94ZM271.848 348.731H366.293V344.238H271.842L271.848 348.731Z" fill="#371A45"/>
<path d="M266.37 206.02H122.577C116.999 206.02 112.476 210.543 112.476 216.122V309.139C112.476 314.718 116.999 319.241 122.577 319.241H266.37C271.949 319.241 276.471 314.718 276.471 309.139V216.122C276.471 210.543 271.949 206.02 266.37 206.02Z" fill="#D8D8D8"/>
<g opacity="0.7">
<path d="M266.37 206.02H122.577C116.999 206.02 112.476 210.543 112.476 216.122V309.139C112.476 314.718 116.999 319.241 122.577 319.241H266.37C271.949 319.241 276.471 314.718 276.471 309.139V216.122C276.471 210.543 271.949 206.02 266.37 206.02Z" fill="white"/>
</g>
<path d="M271.602 215.362V309.899C271.602 311.086 271.13 312.226 270.29 313.066C269.45 313.906 268.311 314.378 267.123 314.378H121.82C120.632 314.378 119.493 313.906 118.653 313.066C117.813 312.226 117.341 311.086 117.341 309.899V215.362C117.341 214.174 117.813 213.035 118.653 212.195C119.493 211.355 120.632 210.883 121.82 210.883H267.134C268.32 210.886 269.456 211.359 270.294 212.199C271.132 213.039 271.602 214.176 271.602 215.362Z" fill="#D8D8D8"/>
<g opacity="0.25">
<path d="M271.602 215.362V309.899C271.602 311.086 271.13 312.226 270.29 313.066C269.45 313.906 268.311 314.378 267.123 314.378H121.82C121.82 314.378 230.794 304.061 271.602 215.362Z" fill="#371A45"/>
</g>
<path d="M266.369 321.345H122.577C119.341 321.341 116.239 320.054 113.951 317.766C111.663 315.477 110.376 312.375 110.372 309.139V216.122C110.376 212.886 111.663 209.783 113.951 207.495C116.239 205.207 119.341 203.92 122.577 203.916H266.369C269.605 203.92 272.707 205.207 274.996 207.495C277.284 209.783 278.571 212.886 278.574 216.122V309.139C278.571 312.375 277.284 315.478 274.996 317.766C272.707 320.054 269.605 321.341 266.369 321.345ZM122.577 208.125C120.457 208.127 118.424 208.97 116.925 210.469C115.425 211.969 114.582 214.001 114.579 216.122V309.139C114.582 311.26 115.425 313.293 116.925 314.792C118.424 316.291 120.457 317.135 122.577 317.137H266.369C268.489 317.135 270.523 316.292 272.022 314.792C273.521 313.293 274.365 311.26 274.367 309.139V216.122C274.365 214.001 273.521 211.969 272.022 210.469C270.522 208.97 268.489 208.127 266.369 208.125H122.577Z" fill="#371A45"/>
<path d="M174.703 344.129H214.246C215.697 344.129 217.088 344.705 218.115 345.731C219.141 346.757 219.717 348.149 219.717 349.6C219.717 349.929 219.586 350.244 219.354 350.477C219.121 350.709 218.806 350.84 218.477 350.84H170.473C170.309 350.84 170.147 350.807 169.997 350.744C169.846 350.681 169.709 350.589 169.594 350.473C169.479 350.357 169.388 350.219 169.326 350.068C169.265 349.917 169.234 349.755 169.235 349.591C169.235 348.14 169.811 346.749 170.837 345.722C171.863 344.696 173.255 344.12 174.706 344.12L174.703 344.129Z" fill="#D8D8D8"/>
<g opacity="0.25">
<path d="M174.703 344.129H214.246C215.697 344.129 217.088 344.705 218.115 345.731C219.141 346.757 219.717 348.149 219.717 349.6C219.717 349.929 219.586 350.244 219.354 350.477C219.121 350.709 218.806 350.84 218.477 350.84H170.473C170.309 350.84 170.147 350.807 169.997 350.744C169.846 350.681 169.709 350.589 169.594 350.473C169.479 350.357 169.388 350.219 169.326 350.068C169.265 349.917 169.234 349.755 169.235 349.591C169.235 348.14 169.811 346.749 170.837 345.722C171.863 344.696 173.255 344.12 174.706 344.12L174.703 344.129Z" fill="#371A45"/>
</g>
<path d="M207.572 280.401C207.487 279.086 206.904 277.853 205.943 276.953C204.982 276.052 203.714 275.551 202.396 275.551H186.549C185.231 275.551 183.963 276.052 183.002 276.953C182.041 277.853 181.458 279.086 181.373 280.401L177.233 344.122H211.715L207.572 280.401ZM194.471 299.644C193.049 299.645 191.659 299.223 190.477 298.433C189.294 297.643 188.373 296.52 187.828 295.207C187.284 293.893 187.141 292.447 187.419 291.053C187.696 289.658 188.381 288.377 189.386 287.371C190.392 286.365 191.673 285.681 193.067 285.403C194.462 285.126 195.908 285.268 197.222 285.812C198.535 286.356 199.658 287.278 200.448 288.46C201.238 289.642 201.66 291.033 201.66 292.455C201.66 294.361 200.902 296.19 199.554 297.538C198.206 298.886 196.378 299.644 194.471 299.644Z" fill="#D8D8D8"/>
<path d="M211.715 344.122H177.233L181.373 280.401C181.458 279.086 182.041 277.853 183.002 276.953C183.963 276.052 185.231 275.551 186.549 275.551H202.396C203.714 275.551 204.982 276.052 205.943 276.953C206.904 277.853 207.487 279.086 207.572 280.401L211.715 344.122Z" fill="#D8D8D8"/>
<g opacity="0.7">
<path d="M211.715 344.122H177.233L181.373 280.401C181.458 279.086 182.041 277.853 183.002 276.953C183.963 276.052 185.231 275.551 186.549 275.551H202.396C203.714 275.551 204.982 276.052 205.943 276.953C206.904 277.853 207.487 279.086 207.572 280.401L211.715 344.122Z" fill="white"/>
</g>
<path d="M208.082 340.718H180.867L181.023 338.315L184.773 280.621C184.802 280.17 185.002 279.746 185.332 279.437C185.662 279.128 186.097 278.956 186.549 278.957H202.396C202.848 278.957 203.283 279.129 203.613 279.438C203.943 279.747 204.143 280.17 204.172 280.621L205.762 305.039L208.082 340.718Z" fill="#D8D8D8"/>
<path d="M194.471 300.408C192.898 300.408 191.361 299.942 190.053 299.068C188.745 298.194 187.725 296.952 187.123 295.498C186.522 294.045 186.364 292.446 186.671 290.903C186.978 289.36 187.735 287.943 188.848 286.831C189.96 285.718 191.377 284.961 192.92 284.654C194.463 284.347 196.062 284.505 197.515 285.107C198.968 285.709 200.211 286.728 201.084 288.036C201.958 289.344 202.425 290.882 202.425 292.455C202.422 294.563 201.583 296.585 200.092 298.076C198.602 299.567 196.58 300.405 194.471 300.408ZM194.471 288.103C193.611 288.103 192.769 288.359 192.053 288.837C191.337 289.315 190.78 289.995 190.45 290.79C190.121 291.586 190.035 292.461 190.203 293.305C190.371 294.15 190.785 294.925 191.394 295.534C192.003 296.142 192.779 296.557 193.623 296.725C194.467 296.893 195.343 296.806 196.138 296.477C196.933 296.147 197.613 295.589 198.091 294.873C198.569 294.157 198.824 293.316 198.824 292.455C198.823 291.301 198.363 290.195 197.547 289.379C196.732 288.563 195.625 288.104 194.471 288.103Z" fill="#371A45"/>
<g opacity="0.25">
<path d="M208.082 340.718H180.867L181.023 338.314C187.891 334.204 200.441 324.35 205.762 305.039L208.082 340.718Z" fill="#371A45"/>
</g>
<path d="M211.717 346.226H177.234C176.946 346.227 176.661 346.168 176.397 346.053C176.133 345.939 175.895 345.771 175.698 345.561C175.501 345.351 175.35 345.103 175.253 344.832C175.156 344.561 175.115 344.273 175.134 343.986L179.274 280.266C179.396 278.419 180.216 276.688 181.566 275.422C182.917 274.156 184.698 273.451 186.549 273.448H202.397C204.247 273.451 206.028 274.157 207.378 275.422C208.729 276.687 209.548 278.418 209.671 280.264L213.815 343.986C213.834 344.273 213.794 344.561 213.697 344.832C213.6 345.103 213.448 345.351 213.252 345.561C213.055 345.771 212.817 345.938 212.553 346.053C212.289 346.167 212.004 346.226 211.717 346.226ZM179.479 342.019H209.47L205.472 280.538C205.42 279.757 205.073 279.025 204.502 278.491C203.931 277.956 203.179 277.658 202.397 277.657H186.549C185.766 277.658 185.013 277.956 184.442 278.491C183.871 279.025 183.525 279.757 183.472 280.538L179.479 342.019Z" fill="#371A45"/>
<path d="M131.309 357.915C131.678 357.843 132.05 357.787 132.414 357.696C132.908 357.571 133.014 357.431 133.07 356.922C133.108 356.582 133.14 356.242 133.179 355.903C133.179 355.876 133.225 355.855 133.282 355.793C133.353 356.136 133.409 356.458 133.486 356.777C133.626 357.36 133.791 357.498 134.408 357.535C134.748 357.556 135.089 357.551 135.447 357.644C135.096 357.743 134.745 357.841 134.395 357.943C133.778 358.124 133.699 358.224 133.665 358.873C133.656 359.044 133.665 359.215 133.665 359.387C133.668 359.532 133.625 359.674 133.541 359.792C133.431 359.406 133.314 359.021 133.213 358.633C133.132 358.332 132.95 358.161 132.639 358.135C132.202 358.096 131.765 358.061 131.321 358.025L131.309 357.915Z" fill="#E5E9EC"/>
<path d="M215.602 357.414C215.976 357.432 216.352 357.466 216.727 357.464C217.237 357.464 217.374 357.348 217.551 356.867C217.667 356.547 217.779 356.224 217.898 355.904C217.908 355.879 217.955 355.868 218.024 355.825C218.011 356.175 217.99 356.5 217.989 356.826C217.989 357.426 218.113 357.598 218.703 357.782C219.031 357.882 219.359 357.96 219.686 358.139C219.322 358.152 218.957 358.162 218.594 358.178C217.952 358.208 217.851 358.288 217.664 358.908C217.614 359.072 217.583 359.236 217.537 359.406C217.506 359.548 217.429 359.676 217.319 359.771C217.304 359.369 217.284 358.967 217.275 358.569C217.269 358.258 217.132 358.048 216.838 357.949C216.42 357.807 216.001 357.668 215.583 357.528L215.602 357.414Z" fill="#E5E9EC"/>
<path d="M262.351 368.677C262.711 368.786 263.07 368.896 263.436 368.982C263.932 369.091 264.091 369.018 264.372 368.591C264.56 368.305 264.742 368.016 264.931 367.731C264.946 367.709 264.995 367.709 265.071 367.684C264.979 368.022 264.884 368.333 264.809 368.65C264.669 369.233 264.754 369.43 265.286 369.742C265.58 369.915 265.886 370.07 266.16 370.315C265.803 370.244 265.446 370.171 265.087 370.104C264.455 369.986 264.339 370.04 264.015 370.602C263.929 370.75 263.861 370.908 263.779 371.058C263.716 371.189 263.612 371.296 263.484 371.364C263.56 370.968 263.632 370.573 263.716 370.179C263.756 370.047 263.75 369.905 263.698 369.777C263.646 369.649 263.551 369.543 263.43 369.476C263.056 369.243 262.681 369.013 262.305 368.781L262.351 368.677Z" fill="#E5E9EC"/>
<path d="M330.517 355.819C330.971 355.752 331.427 355.709 331.876 355.613C332.485 355.489 332.622 355.324 332.721 354.707C332.786 354.297 332.844 353.884 332.911 353.472C332.916 353.44 332.97 353.416 333.043 353.349C333.11 353.771 333.161 354.164 333.235 354.551C333.373 355.269 333.563 355.446 334.315 355.527C334.728 355.572 335.143 355.586 335.574 355.723C335.137 355.825 334.708 355.923 334.275 356.028C333.511 356.214 333.412 356.332 333.334 357.121C333.313 357.328 333.316 357.538 333.3 357.746C333.296 357.923 333.235 358.093 333.126 358.233C333.017 357.756 332.894 357.28 332.79 356.802C332.71 356.431 332.497 356.213 332.12 356.162C331.587 356.091 331.054 356.023 330.52 355.954L330.517 355.819Z" fill="#E5E9EC"/>
<path d="M364.281 358.855C364.644 358.757 365.012 358.675 365.368 358.559C365.852 358.399 365.949 358.252 365.971 357.74C365.985 357.398 365.993 357.057 366.008 356.715C366.008 356.689 366.051 356.664 366.104 356.606C366.198 356.943 366.277 357.262 366.375 357.57C366.556 358.141 366.729 358.267 367.348 358.261C367.687 358.261 368.028 358.231 368.392 358.303C368.049 358.426 367.706 358.548 367.364 358.674C366.761 358.893 366.689 359.002 366.7 359.652C366.7 359.824 366.725 359.994 366.733 360.164C366.746 360.309 366.712 360.454 366.636 360.579C366.499 360.201 366.357 359.825 366.227 359.445C366.193 359.31 366.114 359.192 366.004 359.109C365.893 359.025 365.758 358.982 365.619 358.987L364.297 358.969L364.281 358.855Z" fill="#E5E9EC"/>
<path d="M297.577 369.533C297.949 369.478 298.323 369.439 298.692 369.364C299.19 369.262 299.303 369.126 299.384 368.621C299.438 368.284 299.485 367.945 299.54 367.608C299.54 367.581 299.589 367.562 299.65 367.507C299.704 367.852 299.746 368.176 299.807 368.496C299.916 369.085 300.078 369.23 300.693 369.296C301.031 369.333 301.372 369.344 301.725 369.457C301.37 369.54 301.015 369.621 300.66 369.707C300.036 369.859 299.952 369.955 299.888 370.602C299.872 370.773 299.874 370.944 299.861 371.115C299.857 371.26 299.807 371.4 299.717 371.514C299.625 371.123 299.527 370.733 299.442 370.34C299.424 370.203 299.36 370.077 299.261 369.982C299.162 369.886 299.033 369.828 298.896 369.816C298.459 369.758 298.022 369.706 297.585 369.645L297.577 369.533Z" fill="#E5E9EC"/>
<path d="M250.677 356.75C251.046 356.525 251.425 356.313 251.779 356.072C252.26 355.744 252.325 355.546 252.176 354.979C252.081 354.598 251.98 354.22 251.886 353.839C251.879 353.809 251.916 353.768 251.955 353.684C252.168 354.025 252.358 354.347 252.566 354.656C252.95 355.229 253.182 355.312 253.861 355.104C254.235 354.995 254.601 354.849 255.024 354.81C254.687 355.057 254.348 355.302 254.012 355.553C253.421 355.99 253.376 356.134 253.599 356.845C253.658 357.032 253.737 357.214 253.8 357.399C253.861 357.554 253.871 357.725 253.828 357.885C253.555 357.514 253.282 357.146 253.01 356.769C252.803 356.478 252.538 356.367 252.194 356.463C251.705 356.597 251.218 356.735 250.731 356.873L250.677 356.75Z" fill="#E5E9EC"/>
<path d="M190.016 366.211C190.388 366.157 190.762 366.119 191.131 366.043C191.63 365.942 191.743 365.806 191.823 365.3C191.877 364.963 191.925 364.624 191.979 364.288C191.979 364.261 192.028 364.241 192.089 364.187C192.143 364.532 192.185 364.856 192.246 365.17C192.355 365.759 192.518 365.904 193.132 365.971C193.471 366.007 193.812 366.019 194.166 366.133C193.81 366.216 193.454 366.296 193.1 366.382C192.475 366.534 192.391 366.631 192.328 367.277C192.31 367.447 192.313 367.619 192.3 367.79C192.296 367.935 192.246 368.076 192.156 368.19C192.065 367.798 191.967 367.408 191.881 367.016C191.863 366.879 191.8 366.753 191.7 366.657C191.601 366.562 191.472 366.503 191.335 366.491C190.898 366.432 190.461 366.376 190.024 366.32L190.016 366.211Z" fill="#E5E9EC"/>
<path d="M168.379 356.489C169.062 356.489 169.746 356.525 170.427 356.489C171.351 356.441 171.592 356.229 171.873 355.343C172.062 354.751 172.239 354.156 172.429 353.565C172.445 353.519 172.528 353.495 172.648 353.413C172.648 354.049 172.639 354.641 172.663 355.232C172.706 356.324 172.95 356.625 174.036 356.91C174.635 357.067 175.238 357.181 175.849 357.48C175.193 357.534 174.528 357.582 173.867 357.641C172.703 357.744 172.526 357.895 172.237 359.039C172.16 359.34 172.118 359.65 172.048 359.953C172.002 360.212 171.874 360.451 171.682 360.632C171.622 359.903 171.553 359.176 171.506 358.447C171.47 357.884 171.205 357.514 170.66 357.355C169.896 357.136 169.12 356.918 168.35 356.693L168.379 356.489Z" fill="#E5E9EC"/>
<path d="M227.263 368.356C227.925 368.476 228.584 368.626 229.25 368.709C230.155 368.818 230.426 368.658 230.852 367.847C231.136 367.301 231.411 366.754 231.697 366.217C231.72 366.174 231.807 366.166 231.939 366.108C231.829 366.725 231.72 367.297 231.639 367.875C231.493 368.939 231.679 369.276 232.684 369.741C233.237 369.997 233.808 370.212 234.343 370.608C233.688 370.544 233.044 370.478 232.393 370.421C231.246 370.32 231.048 370.436 230.569 371.496C230.443 371.776 230.35 372.068 230.228 372.35C230.139 372.595 229.973 372.804 229.756 372.947C229.824 372.229 229.883 371.511 229.962 370.796C230.025 370.243 229.831 369.839 229.33 369.594C228.622 369.244 227.91 368.899 227.203 368.553L227.263 368.356Z" fill="#E5E9EC"/>
<path d="M284.603 355.709C285.121 355.656 285.643 355.624 286.156 355.541C286.854 355.432 287.019 355.247 287.16 354.551C287.254 354.086 287.339 353.619 287.435 353.155C287.442 353.119 287.504 353.094 287.591 353.022C287.646 353.503 287.686 353.955 287.752 354.4C287.875 355.224 288.086 355.434 288.933 355.562C289.401 355.632 289.872 355.671 290.354 355.845C289.858 355.94 289.36 356.03 288.864 356.13C287.99 356.305 287.867 356.434 287.742 357.326C287.708 357.561 287.701 357.799 287.673 358.035C287.661 358.236 287.584 358.428 287.454 358.581C287.345 358.035 287.236 357.489 287.14 356.943C287.065 356.518 286.834 356.259 286.408 356.184C285.806 356.075 285.206 355.976 284.599 355.872L284.603 355.709Z" fill="#E5E9EC"/>
<path d="M321.785 366.962C322.479 366.967 323.175 367.004 323.867 366.971C324.808 366.925 325.053 366.711 325.343 365.811C325.537 365.21 325.719 364.609 325.916 364.005C325.931 363.958 326.016 363.934 326.141 363.851C326.141 364.497 326.128 365.099 326.149 365.7C326.189 366.808 326.437 367.12 327.54 367.413C328.147 367.575 328.766 367.693 329.38 368C328.708 368.051 328.036 368.097 327.364 368.155C326.181 368.256 326 368.408 325.7 369.575C325.622 369.881 325.577 370.196 325.505 370.504C325.457 370.768 325.326 371.01 325.13 371.193C325.072 370.453 325.004 369.713 324.96 368.971C324.925 368.398 324.657 368.021 324.104 367.858C323.323 367.627 322.54 367.402 321.758 367.175C321.766 367.094 321.776 367.025 321.785 366.962Z" fill="#E5E9EC"/>
<path d="M218.475 352.94H170.473C169.586 352.939 168.736 352.586 168.109 351.959C167.482 351.332 167.129 350.482 167.128 349.596C167.131 347.587 167.93 345.662 169.35 344.242C170.77 342.821 172.695 342.023 174.704 342.02H214.246C216.254 342.023 218.18 342.821 219.6 344.242C221.02 345.662 221.819 347.587 221.821 349.596C221.82 350.483 221.467 351.333 220.84 351.96C220.213 352.587 219.362 352.94 218.475 352.94ZM171.448 348.731H217.497C217.306 348.014 216.883 347.38 216.295 346.927C215.706 346.475 214.985 346.229 214.242 346.229H174.704C173.961 346.229 173.24 346.475 172.651 346.927C172.062 347.38 171.64 348.014 171.448 348.731Z" fill="#371A45"/>
<path d="M381.25 302.881C380.906 302.881 380.569 302.796 380.266 302.633C364.893 294.454 344.449 301.68 344.244 301.759C343.72 301.95 343.141 301.924 342.635 301.687C342.13 301.451 341.739 301.023 341.549 300.498C341.358 299.973 341.385 299.395 341.621 298.889C341.858 298.383 342.285 297.993 342.81 297.802C343.717 297.475 365.198 289.853 382.243 298.923C382.658 299.144 382.987 299.497 383.178 299.926C383.369 300.355 383.411 300.836 383.297 301.292C383.183 301.747 382.92 302.152 382.55 302.441C382.179 302.73 381.723 302.886 381.253 302.886L381.25 302.881Z" fill="#371A45"/>
<path d="M190.742 265.221C189.3 265.221 188.193 264.09 188.111 262.533C188.012 260.748 187.925 258.954 187.839 257.16L187.782 255.992H187.71C186.551 255.992 185.853 255.289 185.381 254.676C185.092 254.303 184.805 253.929 184.514 253.547C184.262 253.741 184.008 253.93 183.75 254.113C183.302 254.443 182.762 254.623 182.206 254.627C181.707 254.623 181.218 254.482 180.793 254.218C179.769 253.613 179.28 252.421 179.615 251.323C179.791 250.748 180.12 250.232 180.565 249.827C180.784 249.627 181.01 249.443 181.237 249.268C181.096 249.085 180.957 248.902 180.819 248.722L180.742 248.613C180.718 248.579 180.695 248.544 180.669 248.513C179.82 247.615 179.493 246.606 179.702 245.616L173.681 243.668C172.698 243.335 171.994 242.65 171.751 241.783C171.507 240.917 171.744 239.985 172.396 239.205C173.965 237.323 176.124 234.932 178.902 233.183C181.438 231.591 183.899 230.818 186.432 230.818C186.616 230.818 186.803 230.818 186.99 230.83C188.025 230.867 189.047 231.074 190.015 231.444L190.429 231.055C191.256 230.268 192.112 229.454 193.037 228.712C196.138 226.214 199.811 224.814 204.245 224.431C204.98 224.367 205.729 224.335 206.469 224.335C208.834 224.344 211.187 224.652 213.474 225.252C213.797 225.34 214.113 225.449 214.421 225.579C214.539 225.627 214.658 225.676 214.778 225.718C215.011 225.802 215.217 225.949 215.371 226.143C215.438 226.227 215.666 226.532 215.718 226.598C215.851 226.765 215.941 226.962 215.982 227.172C216.273 228.686 216.111 230.112 215.952 231.491L215.928 231.694C215.491 235.585 214.303 239.106 212.406 242.157C210.944 244.545 208.971 246.58 206.629 248.114C206.115 248.442 205.596 248.77 205.079 249.087C204.768 249.279 204.457 249.472 204.146 249.667C204.473 252.779 203.509 255.668 201.208 258.492C199.65 260.391 197.633 261.999 195.039 263.408C194.116 263.908 193.151 264.392 192.082 264.898C191.666 265.102 191.209 265.21 190.745 265.214L190.742 265.221ZM193.274 258.229C194.345 257.587 195.34 256.827 196.241 255.964C197.434 254.79 198.179 253.66 198.577 252.42L193.086 254.554C193.15 255.762 193.211 256.986 193.27 258.227L193.274 258.229ZM194.644 239.743C195.251 239.743 195.839 239.956 196.305 240.345C196.621 240.597 196.876 240.918 197.05 241.284C197.224 241.65 197.311 242.05 197.307 242.455C197.295 242.877 197.187 243.29 196.991 243.664C196.795 244.037 196.516 244.361 196.176 244.611C194.687 245.756 193.191 246.902 191.687 248.051C190.749 248.768 189.81 249.487 188.871 250.207C194.089 248.606 198.004 247 201.482 245.037C203.202 244.066 204.517 243.128 205.62 242.087C206.959 240.813 208.055 239.209 208.958 237.194C208.729 236.902 208.5 236.602 208.272 236.302L207.835 235.734C206.362 233.804 204.896 231.883 203.415 229.966C202.169 230.147 200.947 230.471 199.776 230.932C197.986 231.624 196.32 232.773 194.371 234.656C192.593 236.356 190.981 238.222 189.557 240.228C188.313 241.982 187.094 243.806 185.915 245.569L185.713 245.869L188.096 244.045C189.698 242.812 191.307 241.581 192.921 240.352C193.413 239.965 194.018 239.75 194.644 239.74V239.743ZM182.434 240.866C183.586 239.301 184.727 237.748 185.858 236.205C185.487 236.236 185.12 236.301 184.76 236.399C182.543 237.009 180.742 238.309 179.158 239.798L182.434 240.866ZM210.55 231.301C210.602 230.91 210.643 230.523 210.671 230.139L209.56 230.005L210.55 231.301Z" fill="white"/>
<path d="M214.605 231.548C214.76 230.188 214.941 228.811 214.674 227.428C214.555 227.277 214.446 227.124 214.327 226.973C213.932 226.831 213.549 226.646 213.139 226.543C210.254 225.798 207.328 225.503 204.356 225.759C200.481 226.093 196.927 227.288 193.868 229.752C192.761 230.64 191.751 231.644 190.718 232.617C190.44 232.882 190.227 232.991 189.844 232.813C188.926 232.413 187.941 232.19 186.94 232.157C184.253 232.036 181.855 232.903 179.62 234.307C177.197 235.837 175.244 237.874 173.426 240.058C172.651 240.984 172.951 242.016 174.104 242.405C174.832 242.642 175.559 242.875 176.289 243.113C178.032 243.677 179.772 244.239 181.509 244.8C181.51 244.836 181.507 244.873 181.501 244.909C181.488 244.947 181.47 244.984 181.449 245.018C180.724 245.95 180.903 246.813 181.667 247.623C181.747 247.717 181.822 247.816 181.892 247.918C182.292 248.444 182.702 248.976 183.126 249.525C182.547 249.972 181.978 250.352 181.474 250.811C181.207 251.055 181.009 251.366 180.9 251.711C180.737 252.248 181.01 252.798 181.494 253.08C182.001 253.385 182.523 253.373 182.995 253.032C183.594 252.606 184.166 252.145 184.776 251.678C185.351 252.437 185.896 253.154 186.443 253.863C187.071 254.67 187.502 254.808 188.475 254.539C188.652 254.484 188.827 254.446 189.035 254.395C189.051 254.603 189.066 254.77 189.075 254.926C189.198 257.439 189.313 259.957 189.45 262.464C189.514 263.653 190.452 264.212 191.526 263.704C192.495 263.248 193.464 262.764 194.415 262.248C196.605 261.057 198.598 259.599 200.187 257.66C202.178 255.218 203.279 252.491 202.764 249.27C202.761 249.191 202.778 249.113 202.812 249.042C202.845 248.971 202.896 248.909 202.958 248.861C203.935 248.231 204.938 247.642 205.915 247.003C208.095 245.576 209.93 243.681 211.288 241.458C213.162 238.423 214.204 235.088 214.605 231.548ZM182.936 242.425L176.694 240.391C178.909 238.038 181.252 235.983 184.407 235.116C185.771 234.741 187.347 234.773 188.277 235.151C186.51 237.562 184.741 239.973 182.936 242.425ZM199.86 252.766C199.348 254.398 198.372 255.727 197.17 256.912C195.675 258.369 193.935 259.453 192.054 260.445C191.941 258.134 191.827 255.871 191.711 253.658L200.132 250.386C200.24 251.157 200.108 251.972 199.86 252.766ZM210.363 237.292C209.448 239.453 208.247 241.42 206.539 243.048C205.218 244.297 203.718 245.3 202.141 246.192C197.86 248.607 193.273 250.274 188.583 251.682C188.354 251.748 188.214 251.736 188.062 251.526C187.734 251.061 187.368 250.613 187.022 250.154C186.994 250.106 186.972 250.055 186.957 250.002C187.077 249.906 187.205 249.812 187.335 249.713C190.012 247.658 192.702 245.609 195.378 243.55C196.153 242.963 196.186 241.954 195.469 241.37C194.969 240.961 194.31 240.967 193.733 241.401C192.123 242.629 190.514 243.859 188.909 245.093C187.707 246.008 186.522 246.921 185.277 247.876C184.849 247.318 184.437 246.808 184.065 246.272C184.002 246.176 184.065 245.934 184.153 245.815C185.58 243.685 186.993 241.545 188.479 239.453C189.95 237.38 191.617 235.452 193.455 233.697C195.177 232.032 197.043 230.563 199.3 229.688C200.738 229.121 202.244 228.747 203.78 228.577C203.919 228.556 204.123 228.697 204.217 228.826C205.784 230.854 207.335 232.883 208.887 234.918C209.354 235.522 209.813 236.141 210.294 236.738C210.362 236.812 210.404 236.905 210.417 237.004C210.429 237.103 210.41 237.204 210.363 237.292ZM211.293 234.458C209.744 232.428 208.234 230.455 206.716 228.472C206.716 228.426 206.732 228.374 206.738 228.325C208.503 228.536 210.27 228.752 212.056 228.966C212.014 230.82 211.759 232.663 211.296 234.458H211.293Z" fill="#371A45"/>
<path d="M210.295 236.736C209.815 236.138 209.355 235.52 208.888 234.916C207.336 232.881 205.785 230.852 204.218 228.824C204.119 228.695 203.916 228.554 203.781 228.575C202.245 228.745 200.739 229.119 199.301 229.686C197.044 230.56 195.178 232.03 193.457 233.694C191.618 235.45 189.951 237.378 188.48 239.451C186.995 241.543 185.581 243.683 184.154 245.813C184.068 245.932 184.003 246.174 184.067 246.27C184.438 246.806 184.85 247.316 185.278 247.874C186.524 246.919 187.712 246.006 188.91 245.09C190.517 243.857 192.125 242.627 193.734 241.399C194.311 240.962 194.97 240.962 195.47 241.368C196.187 241.952 196.154 242.961 195.379 243.548C192.703 245.607 190.013 247.656 187.336 249.711C187.206 249.81 187.079 249.904 186.958 250C186.973 250.053 186.995 250.104 187.023 250.152C187.369 250.611 187.736 251.059 188.063 251.524C188.215 251.734 188.355 251.743 188.584 251.68C193.274 250.272 197.861 248.605 202.142 246.189C203.719 245.298 205.219 244.295 206.54 243.046C208.253 241.417 209.454 239.451 210.364 237.29C210.411 237.202 210.43 237.101 210.418 237.002C210.405 236.903 210.363 236.81 210.295 236.736ZM205.597 239.834C203.55 241.376 200.655 240.999 199.118 238.981C198.377 238.007 198.052 236.778 198.216 235.564C198.38 234.351 199.019 233.252 199.992 232.509C201.982 230.98 204.879 231.373 206.43 233.389C207.962 235.394 207.588 238.331 205.597 239.837V239.834Z" fill="white"/>
<path d="M211.296 234.456C209.746 232.43 208.237 230.454 206.719 228.471C206.719 228.424 206.735 228.375 206.74 228.324C208.505 228.542 210.273 228.753 212.062 228.966C212.025 230.888 211.738 232.651 211.296 234.456Z" fill="#DB2C2C"/>
<path d="M188.279 235.152C186.509 237.561 184.74 239.973 182.937 242.427C180.921 241.771 178.836 241.09 176.694 240.393C178.911 238.037 181.252 235.981 184.408 235.117C185.771 234.739 187.345 234.769 188.279 235.152Z" fill="#DB2C2C"/>
<path d="M197.168 256.912C195.673 258.368 193.935 259.46 192.053 260.443C191.938 258.134 191.824 255.872 191.711 253.657C194.551 252.551 197.335 251.472 200.134 250.379C200.243 251.15 200.107 251.965 199.861 252.763C199.351 254.401 198.374 255.728 197.168 256.912Z" fill="#DB2C2C"/>
<path d="M206.427 233.391C204.875 231.375 201.979 230.98 199.989 232.511C199.016 233.254 198.377 234.353 198.213 235.567C198.049 236.78 198.373 238.009 199.115 238.983C200.652 241.001 203.547 241.378 205.594 239.837C207.588 238.331 207.962 235.394 206.427 233.391ZM204.218 238.134C203.832 238.417 203.371 238.579 202.894 238.601C202.416 238.623 201.943 238.503 201.533 238.256C201.123 238.01 200.796 237.648 200.591 237.216C200.386 236.784 200.314 236.301 200.383 235.828C200.451 235.355 200.658 234.912 200.978 234.557C201.297 234.201 201.714 233.947 202.177 233.828C202.64 233.708 203.128 233.728 203.58 233.885C204.031 234.042 204.427 234.329 204.716 234.709C204.909 234.967 205.049 235.26 205.128 235.571C205.208 235.883 205.225 236.207 205.178 236.525C205.132 236.844 205.023 237.15 204.859 237.426C204.694 237.702 204.476 237.943 204.218 238.134Z" fill="#371A45"/>
<path d="M204.217 238.134C203.831 238.417 203.371 238.579 202.893 238.601C202.415 238.623 201.942 238.503 201.532 238.257C201.123 238.011 200.795 237.649 200.59 237.217C200.385 236.785 200.312 236.302 200.381 235.829C200.45 235.356 200.657 234.913 200.976 234.557C201.295 234.201 201.712 233.948 202.175 233.828C202.638 233.708 203.126 233.728 203.577 233.885C204.029 234.041 204.424 234.328 204.714 234.708C204.907 234.966 205.047 235.259 205.126 235.57C205.206 235.882 205.223 236.206 205.177 236.525C205.131 236.843 205.022 237.149 204.857 237.425C204.693 237.701 204.475 237.942 204.217 238.134Z" fill="#22A7F0"/>
</g>
</g>
<g filter="url(#filter4_d_220_12)">
<circle cx="74" cy="84" r="25" fill="white"/>
</g>
<defs>
<filter id="filter0_bd_220_12" x="-11" y="-38" width="525" height="525" filterUnits="userSpaceOnUse" color-interpolation-filters="sRGB">
<feFlood flood-opacity="0" result="BackgroundImageFix"/>
<feGaussianBlur in="BackgroundImageFix" stdDeviation="22"/>
<feComposite in2="SourceAlpha" operator="in" result="effect1_backgroundBlur_220_12"/>
<feColorMatrix in="SourceAlpha" type="matrix" values="0 0 0 0 0 0 0 0 0 0 0 0 0 0 0 0 0 0 127 0" result="hardAlpha"/>
<feOffset/>
<feGaussianBlur stdDeviation="3"/>
<feComposite in2="hardAlpha" operator="out"/>
<feColorMatrix type="matrix" values="0 0 0 0 0.160784 0 0 0 0 0.215686 0 0 0 0 0.282353 0 0 0 1 0"/>
<feBlend mode="normal" in2="effect1_backgroundBlur_220_12" result="effect2_dropShadow_220_12"/>
<feBlend mode="normal" in="SourceGraphic" in2="effect2_dropShadow_220_12" result="shape"/>
</filter>
<filter id="filter1_d_220_12" x="55" y="-29" width="190" height="190" filterUnits="userSpaceOnUse" color-interpolation-filters="sRGB">
<feFlood flood-opacity="0" result="BackgroundImageFix"/>
<feColorMatrix in="SourceAlpha" type="matrix" values="0 0 0 0 0 0 0 0 0 0 0 0 0 0 0 0 0 0 127 0" result="hardAlpha"/>
<feMorphology radius="13" operator="dilate" in="SourceAlpha" result="effect1_dropShadow_220_12"/>
<feOffset dx="10" dy="10"/>
<feGaussianBlur stdDeviation="38.5"/>
<feComposite in2="hardAlpha" operator="out"/>
<feColorMatrix type="matrix" values="0 0 0 0 1 0 0 0 0 1 0 0 0 0 1 0 0 0 1 0"/>
<feBlend mode="normal" in2="BackgroundImageFix" result="effect1_dropShadow_220_12"/>
<feBlend mode="normal" in="SourceGraphic" in2="effect1_dropShadow_220_12" result="shape"/>
</filter>
<filter id="filter2_d_220_12" x="33" y="79" width="190" height="190" filterUnits="userSpaceOnUse" color-interpolation-filters="sRGB">
<feFlood flood-opacity="0" result="BackgroundImageFix"/>
<feColorMatrix in="SourceAlpha" type="matrix" values="0 0 0 0 0 0 0 0 0 0 0 0 0 0 0 0 0 0 127 0" result="hardAlpha"/>
<feMorphology radius="13" operator="dilate" in="SourceAlpha" result="effect1_dropShadow_220_12"/>
<feOffset dx="10" dy="10"/>
<feGaussianBlur stdDeviation="38.5"/>
<feComposite in2="hardAlpha" operator="out"/>
<feColorMatrix type="matrix" values="0 0 0 0 1 0 0 0 0 1 0 0 0 0 1 0 0 0 1 0"/>
<feBlend mode="normal" in2="BackgroundImageFix" result="effect1_dropShadow_220_12"/>
<feBlend mode="normal" in="SourceGraphic" in2="effect1_dropShadow_220_12" result="shape"/>
</filter>
<filter id="filter3_d_220_12" x="153" y="-19" width="190" height="190" filterUnits="userSpaceOnUse" color-interpolation-filters="sRGB">
<feFlood flood-opacity="0" result="BackgroundImageFix"/>
<feColorMatrix in="SourceAlpha" type="matrix" values="0 0 0 0 0 0 0 0 0 0 0 0 0 0 0 0 0 0 127 0" result="hardAlpha"/>
<feMorphology radius="13" operator="dilate" in="SourceAlpha" result="effect1_dropShadow_220_12"/>
<feOffset dx="10" dy="10"/>
<feGaussianBlur stdDeviation="38.5"/>
<feComposite in2="hardAlpha" operator="out"/>
<feColorMatrix type="matrix" values="0 0 0 0 1 0 0 0 0 1 0 0 0 0 1 0 0 0 1 0"/>
<feBlend mode="normal" in2="BackgroundImageFix" result="effect1_dropShadow_220_12"/>
<feBlend mode="normal" in="SourceGraphic" in2="effect1_dropShadow_220_12" result="shape"/>
</filter>
<filter id="filter4_d_220_12" x="0" y="10" width="148" height="148" filterUnits="userSpaceOnUse" color-interpolation-filters="sRGB">
<feFlood flood-opacity="0" result="BackgroundImageFix"/>
<feColorMatrix in="SourceAlpha" type="matrix" values="0 0 0 0 0 0 0 0 0 0 0 0 0 0 0 0 0 0 127 0" result="hardAlpha"/>
<feOffset/>
<feGaussianBlur stdDeviation="24.5"/>
<feComposite in2="hardAlpha" operator="out"/>
<feColorMatrix type="matrix" values="0 0 0 0 1 0 0 0 0 1 0 0 0 0 1 0 0 0 1 0"/>
<feBlend mode="normal" in2="BackgroundImageFix" result="effect1_dropShadow_220_12"/>
<feBlend mode="normal" in="SourceGraphic" in2="effect1_dropShadow_220_12" result="shape"/>
</filter>
<linearGradient id="paint0_linear_220_12" x1="251.5" y1="6" x2="251.5" y2="443" gradientUnits="userSpaceOnUse">
<stop stop-color="#2B3E55" stop-opacity="0.8"/>
<stop offset="1" stop-color="#2B3E55" stop-opacity="0.5"/>
</linearGradient>
<clipPath id="clip0_220_12">
<rect x="33" y="6" width="437" height="437" rx="218.5" fill="white"/>
</clipPath>
</defs>
</svg>
