<svg width="1440" height="395" viewBox="0 0 1440 395" fill="none" xmlns="http://www.w3.org/2000/svg">
<path opacity="0.36" d="M0 395V158.074C97.9923 153.751 195.985 149.428 266.25 145.459C336.515 141.491 379.054 137.877 452.25 129.006C525.446 120.136 629.3 106.008 723.75 114.747C818.2 123.485 903.246 155.09 972.75 157.525C1042.25 159.961 1096.22 133.228 1171.5 128.458C1246.78 123.688 1343.39 140.881 1440 158.074V395H0Z" fill="#2E5077"/>
<path opacity="0.48" d="M0 395V276.151C76.9692 293.792 153.938 311.433 232.5 303.112C311.062 294.791 391.215 260.507 487.5 254.142C583.785 247.776 696.2 269.328 764.25 286.605C832.3 303.882 855.985 316.885 916.5 317.418C977.015 317.951 1074.36 306.016 1167.75 297.06C1261.14 288.103 1350.57 282.127 1440 276.151V395H0Z" fill="#2E5077"/>
<path opacity="0.24" d="M0 395V39.046C68.9385 48.5927 137.877 58.1395 231 45.6377C324.123 33.1359 441.431 -1.41435 519.75 0.044843C598.069 1.50404 637.4 38.9727 692.25 40.6939C747.1 42.4151 817.469 8.38875 917.25 12.679C1017.03 16.9693 1146.22 59.5762 1238.25 70.3568C1330.28 81.1373 1385.14 60.0917 1440 39.046V395H0Z" fill="#2E5077"/>
</svg>
